first trial																																					
nRows=37																																					
nColumns=38																																					
																																					
# SIMM Motion File Header:																																					
name Chen yuetian_10kg																																					
datacolumns 38																																					
datarows 37																																					
otherdata 1																																					
range 2.733 3.333																																					
endheader																																					
time	pelvis_tilt	pelvis_list	pelvis_rotation	pelvis_tx	pelvis_ty	pelvis_tz	hip_flexion_r	hip_adduction_r	hip_rotation_r	knee_angle_r	ankle_angle_r	subtalar_angle_r	mtp_angle_r	hip_flexion_l	hip_adduction_l	hip_rotation_l	knee_angle_l	ankle_angle_l	subtalar_angle_l	mtp_angle_l	lumbar_extension	lumbar_bending	lumbar_rotation	arm_flex_r	arm_add_r	arm_rot_r	elbow_flex_r	pro_sup_r	wrist_flex_r	wrist_dev_r	arm_flex_l	arm_add_l	arm_rot_l	elbow_flex_l	pro_sup_l	wrist_flex_l	wrist_dev_l
2.733	20.5084	-7.3453	-73.4447	0.1567	0.6981	-0.4294	41.1282	-8.6951	0.1924	68.4448	7.7571	1.4477	0	45.4122	-19.4721	27.5171	52.323	-15.9429	7.9808	0	-15.6466	-3.4745	4.3928	-5.4047	-32.5998	-18.0524	71.975	97.7862	-32.7641	13.8442	37.5206	-17.7088	3.7486	101.2362	25.9348	-15.6374	-38.7632
2.749	20.5197	-7.3725	-73.4233	0.1566	0.6983	-0.4295	41.0867	-8.6976	0.2151	68.3844	7.7117	1.4609	0	45.4617	-19.4641	27.5562	52.3404	-16.0798	7.9079	0	-15.6532	-3.4941	4.4141	-5.3862	-32.6132	-18.0291	71.9534	97.7948	-32.7052	13.9012	36.8348	-17.6398	3.5251	99.5305	25.7952	-16.1973	-39.3564
2.766	20.5217	-7.3927	-73.4189	0.1566	0.6985	-0.4296	41.0575	-8.6892	0.2614	68.3249	7.6667	1.4467	0	45.5156	-19.4669	27.5609	52.3627	-16.2371	7.8731	0	-15.6479	-3.5143	4.4408	-5.3641	-32.6367	-18.0165	71.9501	97.7635	-32.6219	13.9457	36.1087	-17.5558	3.2906	97.7622	25.5635	-16.6396	-39.8447
2.783	20.5168	-7.4082	-73.4202	0.1566	0.6986	-0.4296	41.0346	-8.677	0.3126	68.2653	7.6201	1.4166	0	45.573	-19.4713	27.5438	52.3866	-16.409	7.8595	0	-15.6371	-3.533	4.4685	-5.3367	-32.6669	-18.0079	71.9575	97.7132	-32.5224	13.9869	35.3694	-17.4614	3.0493	95.9188	25.2494	-16.9799	-40.2504
2.799	20.5123	-7.4199	-73.4106	0.1567	0.6988	-0.4296	41.0088	-8.6752	0.3479	68.2104	7.5711	1.3807	0	45.6256	-19.4593	27.519	52.4076	-16.5789	7.8533	0	-15.6303	-3.5439	4.4923	-5.3085	-32.7002	-18.0095	71.974	97.6732	-32.4114	14.0261	34.6666	-17.3656	2.8061	93.9547	24.807	-17.197	-40.5665
2.816	20.5118	-7.4265	-73.3828	0.1568	0.699	-0.4296	40.9753	-8.6897	0.3589	68.1633	7.5212	1.344	0	45.6699	-19.4217	27.4829	52.4231	-16.7518	7.8551	0	-15.6311	-3.5444	4.5116	-5.2829	-32.7364	-18.0392	71.9974	97.6546	-32.29	14.0587	34.0294	-17.2699	2.5519	91.847	24.16	-17.2028	-40.726
2.833	20.5116	-7.4293	-73.3443	0.157	0.6992	-0.4296	40.9391	-8.7144	0.354	68.1209	7.4691	1.3015	0	45.7095	-19.3677	27.4391	52.4357	-16.9231	7.865	0	-15.6359	-3.537	4.5269	-5.2566	-32.7756	-18.0791	72.0301	97.6462	-32.1571	14.0893	33.4286	-17.1724	2.2968	89.6139	23.3876	-17.0929	-40.7981
2.849	20.5074	-7.4327	-73.2996	0.1572	0.6994	-0.4295	40.9051	-8.7456	0.3367	68.0782	7.4104	1.2494	0	45.7459	-19.3075	27.4127	52.4482	-17.063	7.8682	0	-15.6428	-3.522	4.5353	-5.2245	-32.8151	-18.0827	72.0774	97.6438	-32.0148	14.1336	32.8257	-17.0787	2.073	87.2738	22.676	-17.1157	-40.9802
2.866	20.5012	-7.4376	-73.2446	0.1574	0.6996	-0.4295	40.8693	-8.788	0.3055	68.0307	7.3391	1.1779	0	45.7745	-19.2376	27.4197	52.4595	-17.1572	7.8527	0	-15.6509	-3.4945	4.5354	-5.1888	-32.8534	-18.0205	72.1438	97.6514	-31.8528	14.2004	32.182	-16.9918	1.895	84.8157	22.1027	-17.4383	-41.3932
2.883	20.4911	-7.4433	-73.1832	0.1577	0.6997	-0.4294	40.8358	-8.8367	0.262	67.9828	7.2613	1.0967	0	45.8001	-19.1614	27.4442	52.4707	-17.2199	7.8307	0	-15.6612	-3.4594	4.5285	-5.1473	-32.8918	-17.9218	72.2246	97.6655	-31.6811	14.2806	31.5359	-16.9101	1.7485	82.2538	21.5923	-17.8763	-41.9065
2.899	20.4667	-7.4519	-73.1332	0.1579	0.6999	-0.4293	40.8218	-8.873	0.2139	67.9422	7.1914	1.0303	0	45.8383	-19.0996	27.4633	52.4876	-17.2645	7.8242	0	-15.6748	-3.4317	4.516	-5.0885	-32.9317	-17.828	72.3114	97.6705	-31.5326	14.3636	30.9645	-16.8314	1.6209	79.645	21.0881	-18.1528	-42.3409
2.916	20.4244	-7.4629	-73.1034	0.158	0.6999	-0.4292	40.8353	-8.8878	0.1655	67.9124	7.1337	0.9877	0	45.8926	-19.0644	27.4583	52.5134	-17.2858	7.8503	0	-15.6945	-3.4164	4.4981	-5.0003	-32.9816	-17.749	72.4071	97.6541	-31.4229	14.4553	30.507	-16.728	1.531	76.9896	20.5716	-18.0962	-42.6178
2.933	20.3678	-7.4768	-73.0848	0.1581	0.7	-0.4291	40.8684	-8.8901	0.1127	67.8899	7.0837	0.9599	0	45.9597	-19.0436	27.4481	52.5448	-17.2889	7.8919	0	-15.7175	-3.4085	4.4747	-4.8945	-33.033	-17.6749	72.5093	97.6281	-31.3365	14.5497	30.1244	-16.6272	1.4592	74.2851	20.0291	-17.8873	-42.8162
2.949	20.2987	-7.498	-73.0688	0.1582	0.7	-0.429	40.9148	-8.8886	0.0506	67.8722	7.043	0.9449	0	46.0454	-19.0215	27.4666	52.5782	-17.3028	7.9193	0	-15.737	-3.4088	4.4468	-4.7957	-33.0622	-17.6167	72.6027	97.6121	-31.2584	14.6182	29.7758	-16.6079	1.3339	71.5831	19.4272	-17.7871	-43.0052
2.966	20.2154	-7.527	-73.051	0.1582	0.7	-0.4289	40.9757	-8.8895	-0.0211	67.8609	7.0143	0.9438	0	46.1528	-18.9888	27.5208	52.6101	-17.3366	7.9189	0	-15.7493	-3.4221	4.412	-4.7101	-33.0512	-17.586	72.6773	97.6194	-31.1866	14.641	29.4654	-16.7391	1.0908	68.8922	18.7614	-17.8629	-43.2109
2.983	20.1196	-7.5632	-73.0358	0.1582	0.7	-0.4288	41.05	-8.8865	-0.1021	67.8544	6.9947	0.9553	0	46.2788	-18.9547	27.6036	52.644	-17.3812	7.9045	0	-15.7581	-3.4436	4.3727	-4.6316	-33.018	-17.5714	72.7432	97.6367	-31.1229	14.6382	29.187	-16.9506	0.7909	66.2073	18.0796	-18.0511	-43.4256
2.999	20.0171	-7.6084	-73.0283	0.1581	0.7	-0.4287	41.1276	-8.8702	-0.1966	67.8445	6.9776	0.9738	0	46.4195	-18.9315	27.7286	52.6869	-17.438	7.8878	0	-15.7679	-3.4593	4.3368	-4.5662	-32.9931	-17.5504	72.8143	97.6442	-31.0581	14.641	28.8859	-17.1129	0.5515	63.5608	17.4322	-18.4133	-43.6713
3.016	19.9105	-7.6638	-73.0341	0.1581	0.7001	-0.4285	41.2047	-8.8329	-0.3092	67.8283	6.9616	1.002	0	46.5765	-18.9294	27.9161	52.7419	-17.5174	7.8738	0	-15.7808	-3.4614	4.3106	-4.5251	-32.9854	-17.5115	72.9029	97.6338	-30.997	14.6665	28.5294	-17.1703	0.4205	60.9593	16.8313	-19.0661	-43.9862
3.033	19.7974	-7.7283	-73.0476	0.158	0.7001	-0.4283	41.285	-8.7823	-0.4353	67.8087	6.948	1.0371	0	46.7482	-18.938	28.1459	52.8059	-17.6091	7.8576	0	-15.7947	-3.4578	4.2879	-4.497	-32.9863	-17.4663	72.9966	97.6137	-30.9348	14.6976	28.1515	-17.1796	0.3518	58.3975	16.2486	-19.8914	-44.3415
3.049	19.6756	-7.7997	-73.0562	0.158	0.7002	-0.4281	41.3694	-8.731	-0.5648	67.7864	6.9338	1.0652	0	46.9266	-18.9393	28.3705	52.8755	-17.6835	7.836	0	-15.8074	-3.4575	4.2575	-4.4545	-32.9999	-17.4269	73.0724	97.5883	-30.8474	14.7146	27.7985	-17.1807	0.3229	55.8877	15.648	-20.6007	-44.6555
3.066	19.5446	-7.8767	-73.0594	0.158	0.7003	-0.4279	41.4566	-8.6828	-0.6904	67.7598	6.9208	1.0802	0	47.105	-18.9243	28.5728	52.9532	-17.7252	7.8048	0	-15.8186	-3.4667	4.2135	-4.3839	-33.0307	-17.399	73.1083	97.5585	-30.7116	14.7032	27.4828	-17.2047	0.3678	53.4161	14.9755	-21.0696	-44.9146
3.083	19.4049	-7.9606	-73.058	0.158	0.7003	-0.4277	41.5479	-8.634	-0.8193	67.7305	6.9073	1.0881	0	47.29	-18.902	28.7698	53.0369	-17.7497	7.7681	0	-15.8287	-3.4792	4.1619	-4.2988	-33.074	-17.377	73.1263	97.5235	-30.5505	14.6779	27.1916	-17.2213	0.4521	50.9944	14.2624	-21.4297	-45.1447
3.099	19.2555	-8.053	-73.0424	0.158	0.7004	-0.4275	41.6483	-8.5867	-0.9633	67.7038	6.8847	1.0933	0	47.4934	-18.8819	28.9651	53.1165	-17.7736	7.735	0	-15.8373	-3.4862	4.1096	-4.2128	-33.1199	-17.3561	73.1693	97.4856	-30.4099	14.6621	26.9343	-17.1767	0.4509	48.6736	13.6105	-21.7763	-45.3134
3.116	19.0899	-8.1628	-73.0065	0.158	0.7003	-0.4273	41.7644	-8.5345	-1.1476	67.6811	6.8454	1.0999	0	47.7335	-18.8678	29.1739	53.1933	-17.8103	7.7138	0	-15.8426	-3.4845	4.0565	-4.1207	-33.1719	-17.3358	73.2517	97.446	-30.31	14.6558	26.7175	-17.0324	0.2712	46.5034	13.0839	-22.0651	-45.3646
3.133	18.9145	-8.281	-72.9566	0.1579	0.7003	-0.4271	41.8896	-8.4839	-1.3469	67.661	6.797	1.1037	0	47.9922	-18.8555	29.381	53.2659	-17.8465	7.6961	0	-15.8465	-3.4773	4.0027	-4.0276	-33.2265	-17.3165	73.3592	97.4033	-30.2307	14.6587	26.5379	-16.8236	0.0096	44.4349	12.6263	-22.3418	-45.3435
3.149	18.7482	-8.3814	-72.9036	0.1579	0.7002	-0.427	42.0091	-8.4553	-1.4978	67.6438	6.7544	1.097	0	48.2265	-18.8418	29.5442	53.32	-17.858	7.666	0	-15.8534	-3.4649	3.9556	-3.9633	-33.2634	-17.295	73.4917	97.3569	-30.1579	14.6939	26.3882	-16.6088	-0.1755	42.3726	12.1729	-22.8312	-45.3594
3.166	18.5975	-8.4525	-72.85	0.158	0.7002	-0.4269	42.1153	-8.4586	-1.5755	67.6284	6.7259	1.0731	0	48.4157	-18.8275	29.6432	53.347	-17.8198	7.5969	0	-15.8669	-3.4421	3.9232	-3.9528	-33.2625	-17.2663	73.6674	97.3084	-30.0852	14.7843	26.2846	-16.3994	-0.1844	40.2613	11.6938	-23.773	-45.5013
3.183	18.4556	-8.5059	-72.7929	0.1582	0.7003	-0.4268	42.2154	-8.484	-1.6047	67.6159	6.7032	1.0385	0	48.5807	-18.8124	29.6981	53.3556	-17.7569	7.5152	0	-15.8833	-3.4141	3.8975	-3.9712	-33.2442	-17.2352	73.8675	97.2569	-30.019	14.9068	26.2089	-16.1877	-0.118	38.1576	11.2289	-24.9166	-45.6619
3.199	18.3214	-8.5507	-72.7341	0.1584	0.7002	-0.4267	42.3168	-8.5223	-1.5958	67.6104	6.6754	1.0046	0	48.7407	-18.7914	29.7267	53.3572	-17.7209	7.4843	0	-15.8957	-3.3975	3.8621	-3.9735	-33.2489	-17.2126	74.0357	97.1966	-29.9647	15.0157	26.1004	-16.0041	-0.1206	36.133	10.8184	-25.7596	-45.6693
3.216	18.1933	-8.588	-72.6718	0.1585	0.7001	-0.4267	42.4244	-8.5774	-1.5338	67.6158	6.6387	0.9725	0	48.9045	-18.7576	29.7229	53.3531	-17.7409	7.5388	0	-15.8987	-3.4017	3.8049	-3.9318	-33.3073	-17.207	74.1426	97.1154	-29.9195	15.102	25.923	-15.8709	-0.2772	34.219	10.481	-26.0545	-45.4492
3.233	18.0727	-8.6167	-72.6076	0.1586	0.6999	-0.4267	42.5333	-8.6456	-1.4336	67.628	6.5969	0.9412	0	49.0632	-18.718	29.6927	53.3418	-17.788	7.6442	0	-15.8979	-3.4171	3.738	-3.8739	-33.3884	-17.21	74.2188	97.0244	-29.8861	15.1747	25.7131	-15.7635	-0.5035	32.3825	10.1999	-26.0628	-45.0929
3.249	17.9621	-8.6419	-72.5493	0.1587	0.6997	-0.4268	42.636	-8.7062	-1.3517	67.6394	6.5512	0.9191	0	49.2096	-18.689	29.6724	53.3303	-17.8267	7.7593	0	-15.9024	-3.4316	3.6805	-3.8389	-33.4403	-17.2069	74.2987	96.9522	-29.8782	15.2146	25.5197	-15.6426	-0.6895	30.5966	9.9598	-26.0535	-44.6885
3.266	17.8627	-8.6645	-72.4995	0.1587	0.6995	-0.4268	42.7312	-8.7513	-1.3101	67.6471	6.4983	0.9105	0	49.346	-18.6799	29.676	53.3199	-17.8638	7.8962	0	-15.9177	-3.4391	3.6432	-3.8528	-33.4373	-17.1892	74.4111	96.91	-29.912	15.207	25.37	-15.4804	-0.7802	28.828	9.7715	-26.0705	-44.2606
3.283	17.7734	-8.6838	-72.4554	0.1586	0.6993	-0.4269	42.8203	-8.7889	-1.2867	67.6539	6.4413	0.911	0	49.47	-18.6814	29.6895	53.3096	-17.8926	8.0426	0	-15.9382	-3.4457	3.6154	-3.8897	-33.4053	-17.1653	74.5264	96.8871	-29.9714	15.1665	25.2362	-15.3065	-0.8305	27.1098	9.6243	-26.0702	-43.7836
3.299	17.6934	-8.7022	-72.4165	0.1584	0.6992	-0.4269	42.8998	-8.8225	-1.2718	67.6611	6.3913	0.9161	0	49.5679	-18.682	29.7071	53.3029	-17.858	8.1215	0	-15.9566	-3.4571	3.5848	-3.9102	-33.3695	-17.1456	74.5911	96.8789	-30.0216	15.118	25.0841	-15.1684	-0.8947	25.5152	9.4707	-26.1897	-43.269
3.316	17.6241	-8.7213	-72.382	0.1582	0.699	-0.4269	42.9674	-8.8519	-1.2595	67.6695	6.3514	0.9238	0	49.6241	-18.6785	29.7223	53.3022	-17.6998	8.0778	0	-15.9695	-3.4777	3.5426	-3.8915	-33.3351	-17.1365	74.5677	96.8927	-30.0481	15.0725	24.8972	-15.1011	-0.9986	24.0757	9.2617	-26.5012	-42.6976
3.333	17.5643	-8.7397	-72.3524	0.158	0.6989	-0.4269	43.0255	-8.8774	-1.2557	67.6782	6.3184	0.9361	0	49.6541	-18.6741	29.7417	53.3052	-17.4786	7.9671	0	-15.9802	-3.5031	3.4976	-3.8566	-33.2968	-17.1319	74.4936	96.9211	-30.0655	15.0191	24.6917	-15.0691	-1.1175	22.7598	9.0479	-26.9339	-42.0952
